<svg width="80" height="80" viewBox="0 0 80 80" fill="none" xmlns="http://www.w3.org/2000/svg">
<g clip-path="url(#clip0_2041_2076)">
<rect y="-0.00195312" width="80.0039" height="80.0039" rx="40.002" fill="#CA9FB5"/>
<path d="M68.273 24.0727L94.0047 49.8044L48.7379 95.0712L19.4355 65.7688L27.7547 45.5486L68.273 24.0727Z" fill="url(#paint0_linear_2041_2076)"/>
<g filter="url(#filter0_d_2041_2076)">
<path d="M47.2218 19.9506L43.6866 31.8416H31.1529C29.4818 31.8416 27.5642 33.1271 26.8144 33.7698C20.3868 29.142 22.3151 21.3433 24.0827 18.0224C24.0827 16.4798 22.4758 16.0941 21.6723 16.0941C20.3868 16.6297 17.8158 19.2757 17.8158 25.5747C17.8158 31.8737 21.9937 36.3408 24.0827 37.787V45.1787C24.0827 47.6211 20.7618 51.1241 19.1013 52.5703V65.7468H28.7426C28.7426 63.0472 26.493 61.6224 25.3682 61.2475V55.1413C30.2531 55.1413 32.6527 51.0706 33.2419 49.0352H45.9363V65.7468H55.2562C55.2562 62.1474 53.1137 61.2475 52.0424 61.2475V49.0352C55.8989 48.0068 57.5058 45.1787 57.8272 43.8932V31.8416C58.8449 32.1629 61.6194 32.3558 64.5761 30.5561C67.5328 28.7563 68.1648 25.6283 68.1112 24.2892L60.8803 21.3968C60.1304 19.6293 57.6665 16.0941 53.81 16.0941C49.9535 16.0941 47.811 18.6651 47.2218 19.9506Z" fill="#DFCEE1"/>
</g>
<rect x="48.3437" y="32.1948" width="9.7571" height="2.92713" fill="#2F522E"/>
<path d="M47.8645 35.2162C45.422 35.2162 43.9544 32.9665 43.5259 31.8417L47.2217 19.9508C49.2785 18.5367 51.0783 19.7901 51.721 20.5935V31.8417C51.4532 32.9665 50.307 35.2162 47.8645 35.2162Z" fill="#694A59"/>
<path d="M65.7009 23.3253L68.1112 24.2894C68.1112 25.0607 67.897 26.0034 67.7898 26.3783C66.1187 25.8641 65.7009 24.1287 65.7009 23.3253Z" fill="#694A59"/>
<circle cx="55.9617" cy="21.3968" r="0.964181" fill="#694A59"/>
</g>
<defs>
<filter id="filter0_d_2041_2076" x="15.8645" y="14.1428" width="56.1524" height="55.5066" filterUnits="userSpaceOnUse" color-interpolation-filters="sRGB">
<feFlood flood-opacity="0" result="BackgroundImageFix"/>
<feColorMatrix in="SourceAlpha" type="matrix" values="0 0 0 0 0 0 0 0 0 0 0 0 0 0 0 0 0 0 127 0" result="hardAlpha"/>
<feOffset dx="0.975657" dy="0.975657"/>
<feGaussianBlur stdDeviation="1.46349"/>
<feComposite in2="hardAlpha" operator="out"/>
<feColorMatrix type="matrix" values="0 0 0 0 0.388151 0 0 0 0 0.235243 0 0 0 0 0.313763 0 0 0 0.5 0"/>
<feBlend mode="normal" in2="BackgroundImageFix" result="effect1_dropShadow_2041_2076"/>
<feBlend mode="normal" in="SourceGraphic" in2="effect1_dropShadow_2041_2076" result="shape"/>
</filter>
<linearGradient id="paint0_linear_2041_2076" x1="15.7262" y1="61.9619" x2="47.8846" y2="94.1203" gradientUnits="userSpaceOnUse">
<stop stop-color="#633C50" stop-opacity="0.2"/>
<stop offset="1" stop-color="#CA9FB5"/>
</linearGradient>
<clipPath id="clip0_2041_2076">
<rect y="-0.00195312" width="80.0039" height="80.0039" rx="40.002" fill="white"/>
</clipPath>
</defs>
</svg>
