<svg width="80" height="80" viewBox="0 0 80 80" fill="none" xmlns="http://www.w3.org/2000/svg">
<g clip-path="url(#clip0_2041_2109)">
<rect y="-0.00195312" width="80.0039" height="80.0039" rx="40.002" fill="#CA9FB5"/>
<path d="M48.783 14.2105L86.3458 51.773L52.4351 88.4328L13.7591 49.7566L24.387 50.2401L48.783 14.2105Z" fill="url(#paint0_linear_2041_2109)"/>
<rect x="14.2029" y="45.7897" width="47.7145" height="4.65507" rx="2.32754" transform="rotate(15 14.2029 45.7897)" fill="#694A59"/>
<mask id="mask0_2041_2109" style="mask-type:alpha" maskUnits="userSpaceOnUse" x="23" y="12" width="28" height="48">
<path d="M45.5357 13.796C46.5495 12.1332 49.106 12.8182 49.1526 14.7651L50.1709 57.356C50.202 58.6581 48.9731 59.6246 47.7151 59.2875L24.5195 53.0722C23.2614 52.7351 22.6804 51.2837 23.3584 50.1716L45.5357 13.796Z" fill="#694A59"/>
</mask>
<g mask="url(#mask0_2041_2109)">
<path d="M45.5357 13.796C46.5495 12.1332 49.106 12.8182 49.1526 14.7651L50.1709 57.356C50.202 58.6581 48.9731 59.6246 47.7151 59.2875L24.5195 53.0722C23.2614 52.7351 22.6804 51.2837 23.3584 50.1716L45.5357 13.796Z" fill="#694A59"/>
<rect x="24.7013" y="42.5788" width="29.0942" height="5.81884" transform="rotate(15 24.7013 42.5788)" fill="#DFCEE1"/>
</g>
<rect x="29.0367" y="18.9966" width="32.5855" height="2.32753" rx="1.16377" transform="rotate(45 29.0367 18.9966)" fill="#DFCEE1"/>
<path d="M22.9939 15.9118C22.5648 15.0696 23.464 14.1704 24.3061 14.5995L27.7794 16.3692C28.156 16.5611 28.6133 16.4887 28.9122 16.1898L31.6686 13.4334C32.3369 12.7651 33.47 13.3424 33.3222 14.2759L32.7124 18.126C32.6462 18.5435 32.8564 18.9561 33.2331 19.148L36.7063 20.9177C37.5484 21.3468 37.3495 22.6028 36.416 22.7507L32.5659 23.3605C32.1484 23.4266 31.821 23.754 31.7549 24.1715L31.1451 28.0216C30.9972 28.9551 29.7412 29.154 29.3121 28.3119L27.5424 24.8387C27.3505 24.4621 26.9379 24.2518 26.5204 24.318L22.6703 24.9278C21.7368 25.0756 21.1595 23.9425 21.8278 23.2742L24.5842 20.5178C24.8831 20.219 24.9555 19.7616 24.7636 19.385L22.9939 15.9118Z" fill="#2F522E"/>
</g>
<defs>
<linearGradient id="paint0_linear_2041_2109" x1="12.785" y1="61.9617" x2="44.9434" y2="94.1202" gradientUnits="userSpaceOnUse">
<stop stop-color="#633C50" stop-opacity="0.2"/>
<stop offset="1" stop-color="#CA9FB5"/>
</linearGradient>
<clipPath id="clip0_2041_2109">
<rect y="-0.00195312" width="80.0039" height="80.0039" rx="40.002" fill="white"/>
</clipPath>
</defs>
</svg>
