<svg width="80" height="80" viewBox="0 0 80 80" fill="none" xmlns="http://www.w3.org/2000/svg">
<g clip-path="url(#clip0_2041_2085)">
<rect y="-0.00195312" width="80.0039" height="80.0039" rx="40.002" fill="#CA9FB5"/>
<path d="M60.7907 17.9558L92.3222 49.4872L55.062 86.7474L30.9819 62.6673L43.1394 31.7643L60.7907 17.9558Z" fill="url(#paint0_linear_2041_2085)"/>
<g filter="url(#filter0_d_2041_2085)">
<path d="M38.0411 32.4647C38.0411 30.9949 39.2326 29.8034 40.7024 29.8034C42.1722 29.8034 43.3637 30.9949 43.3637 32.4647V41.5133H38.0411V32.4647Z" fill="#DFCEE1"/>
<rect x="30.9819" y="48.6278" width="19.6088" height="14.1183" fill="#694A59"/>
<rect x="28.6288" y="40.7843" width="24.3149" height="7.84352" fill="#694A59"/>
<path d="M40.3386 28.7704C40.3386 22.8431 45.1436 18.0381 51.0708 18.0381H60.5637V21.1441C60.5637 27.0713 55.7587 31.8763 49.8314 31.8763H40.3386V28.7704Z" fill="#2F522E"/>
<path d="M40.226 33.4765C40.226 27.5492 35.421 22.7442 29.4938 22.7442H20.0009V25.8502C20.0009 31.7774 24.8059 36.5824 30.7331 36.5824H40.226V33.4765Z" fill="#2F522E"/>
</g>
</g>
<defs>
<filter id="filter0_d_2041_2085" x="18.0496" y="16.0868" width="46.4167" height="50.562" filterUnits="userSpaceOnUse" color-interpolation-filters="sRGB">
<feFlood flood-opacity="0" result="BackgroundImageFix"/>
<feColorMatrix in="SourceAlpha" type="matrix" values="0 0 0 0 0 0 0 0 0 0 0 0 0 0 0 0 0 0 127 0" result="hardAlpha"/>
<feOffset dx="0.975657" dy="0.975657"/>
<feGaussianBlur stdDeviation="1.46349"/>
<feComposite in2="hardAlpha" operator="out"/>
<feColorMatrix type="matrix" values="0 0 0 0 0.388151 0 0 0 0 0.235243 0 0 0 0 0.313763 0 0 0 0.5 0"/>
<feBlend mode="normal" in2="BackgroundImageFix" result="effect1_dropShadow_2041_2085"/>
<feBlend mode="normal" in="SourceGraphic" in2="effect1_dropShadow_2041_2085" result="shape"/>
</filter>
<linearGradient id="paint0_linear_2041_2085" x1="14.59" y1="46.1951" x2="53.9967" y2="85.6018" gradientUnits="userSpaceOnUse">
<stop stop-color="#633C50" stop-opacity="0.2"/>
<stop offset="1" stop-color="#CA9FB5"/>
</linearGradient>
<clipPath id="clip0_2041_2085">
<rect y="-0.00195312" width="80.0039" height="80.0039" rx="40.002" fill="white"/>
</clipPath>
</defs>
</svg>
