<svg width="80" height="80" viewBox="0 0 80 80" fill="none" xmlns="http://www.w3.org/2000/svg">
<g clip-path="url(#clip0_2041_2094)">
<rect y="-0.00195312" width="80.0039" height="80.0039" rx="40.002" fill="#CA9FB5"/>
<path d="M46.3437 19.5854L85.371 58.6127L50.3223 96.4021L13.6602 59.7401L23.4168 53.1726L28.2951 46.8309L28.7829 33.1717L39.0262 18.5355L42.9289 22.4382L46.3437 19.5854Z" fill="url(#paint0_linear_2041_2094)"/>
<path d="M28.9129 46.8417V33.632L34.3406 21.788C34.9763 20.4007 36.3624 19.5112 37.8884 19.5112H38.1573V30.8989V42.2866V53.2188L30.7618 61.8735L22.9041 54.1299L28.9129 46.8417Z" fill="#DFCEE1"/>
<path d="M32.6107 42.2866L34.7277 33.5935C35.1129 32.012 36.5296 30.8989 38.1573 30.8989V30.8989V42.2866M38.1573 42.2866V53.2188L30.7618 61.8735L22.9041 54.1299L28.9129 46.8417V33.632L34.3406 21.788C34.9763 20.4007 36.3624 19.5112 37.8884 19.5112H38.1573V42.2866Z" stroke="#DFCEE1" stroke-width="1.95131"/>
<path d="M32.3226 42.8429L33.8715 35.0984C34.3275 32.8182 36.3296 31.1768 38.655 31.1768H39.3222" stroke="#CA9FB5" stroke-width="1.95131"/>
<path d="M52.0667 46.8417V33.632L46.6391 21.788C46.0033 20.4007 44.6173 19.5112 43.0912 19.5112H42.8224V30.8989V42.2866V53.2188L50.2179 61.8735L58.0756 54.1299L52.0667 46.8417Z" fill="#DFCEE1"/>
<path d="M48.369 42.2866L46.2519 33.5935C45.8668 32.012 44.4501 30.8989 42.8224 30.8989V30.8989V42.2866M42.8224 42.2866V53.2188L50.2179 61.8735L58.0756 54.1299L52.0667 46.8417V33.632L46.6391 21.788C46.0033 20.4007 44.6173 19.5112 43.0912 19.5112H42.8224V42.2866Z" stroke="#DFCEE1" stroke-width="1.95131"/>
<path d="M48.657 42.8429L47.1081 35.0984C46.6521 32.8182 44.65 31.1768 42.3246 31.1768H41.6574" stroke="#CA9FB5" stroke-width="1.95131"/>
<path fill-rule="evenodd" clip-rule="evenodd" d="M46.9796 63.6954L60.3872 50.4824L68.9249 58.8962L51.9076 68.5519L46.9796 63.6954ZM34.0001 63.6954L20.5925 50.4824L12.0547 58.8962L29.0721 68.5519L34.0001 63.6954Z" fill="#2F522E"/>
<line x1="22.6147" y1="39.0086" x2="11.8819" y2="40.96" stroke="#FEF3FF" stroke-width="1.95131"/>
<line x1="23.7925" y1="26.1353" x2="15.0111" y2="19.3053" stroke="#FEF3FF" stroke-width="1.95131"/>
<line y1="-0.975657" x2="10.9088" y2="-0.975657" transform="matrix(0.98387 0.178885 0.178885 -0.98387 59.5151 38.0487)" stroke="#FEF3FF" stroke-width="1.95131"/>
<line y1="-0.975657" x2="11.1248" y2="-0.975657" transform="matrix(0.789352 -0.613941 -0.613941 -0.789352 57.5638 25.3651)" stroke="#FEF3FF" stroke-width="1.95131"/>
<line x1="46.9799" y1="16.0671" x2="51.8587" y2="8.26105" stroke="#FEF3FF" stroke-width="1.95131"/>
<line y1="-0.975657" x2="9.20532" y2="-0.975657" transform="matrix(-0.529999 -0.847998 -0.847998 0.529999 33.1724 16.5842)" stroke="#FEF3FF" stroke-width="1.95131"/>
</g>
<defs>
<linearGradient id="paint0_linear_2041_2094" x1="12.7849" y1="67.8156" x2="44.9433" y2="99.9741" gradientUnits="userSpaceOnUse">
<stop stop-color="#633C50" stop-opacity="0.2"/>
<stop offset="1" stop-color="#CA9FB5"/>
</linearGradient>
<clipPath id="clip0_2041_2094">
<rect y="-0.00195312" width="80.0039" height="80.0039" rx="40.002" fill="white"/>
</clipPath>
</defs>
</svg>
