<svg width="80" height="80" viewBox="0 0 80 80" fill="none" xmlns="http://www.w3.org/2000/svg">
<g clip-path="url(#clip0_2041_2103)">
<rect y="-0.00195312" width="80.0039" height="80.0039" rx="40.002" fill="#CA9FB5"/>
<path d="M58.0721 23.3607L87.395 52.6836L55.4252 87.3943L27.8062 59.7753L58.0721 23.3607Z" fill="url(#paint0_linear_2041_2103)"/>
<circle cx="40.4898" cy="39.5122" r="23.9036" fill="#DFCEE1"/>
<circle cx="40.4898" cy="39.5122" r="22.9279" stroke="#694A59" stroke-width="1.95131"/>
<path d="M40.4903 31.6937L49.4652 38.3071L46.6502 48.6291L34.3296 48.6291L31.5145 38.3071L40.4903 31.6937Z" fill="#694A59" stroke="#694A59" stroke-width="1.95131"/>
<path d="M31.4593 18.7958L40.49 23.0456L49.5208 18.7958C49.5208 18.7958 44.2086 16.6709 39.9588 16.6709C35.709 16.6709 31.4593 18.7958 31.4593 18.7958Z" fill="#694A59"/>
<path d="M40.49 31.5451V23.0456M40.49 23.0456L31.4593 18.7958C31.4593 18.7958 35.709 16.6709 39.9588 16.6709C44.2086 16.6709 49.5208 18.7958 49.5208 18.7958L40.49 23.0456Z" stroke="#694A59" stroke-width="1.95131"/>
<path d="M58.7863 52.1461L48.8405 52.9811L44.5908 61.2913C44.5908 61.2913 48.8075 60.361 52.4879 58.2361C56.1683 56.1112 58.7863 52.1461 58.7863 52.1461Z" fill="#694A59"/>
<path d="M44.5908 45.6203L48.8405 52.9811M48.8405 52.9811L58.7863 52.1461C58.7863 52.1461 56.1683 56.1112 52.4879 58.2361C48.8075 60.361 44.5908 61.2913 44.5908 61.2913L48.8405 52.9811Z" stroke="#694A59" stroke-width="1.95131"/>
<path d="M21.8981 52.1461L31.8438 52.9811L36.7722 61.2913C36.7722 61.2913 31.8768 60.361 28.1964 58.2361C24.516 56.1112 21.8981 52.1461 21.8981 52.1461Z" fill="#694A59"/>
<path d="M36.0936 45.6203L31.8438 52.9811M31.8438 52.9811L21.8981 52.1461C21.8981 52.1461 24.516 56.1112 28.1964 58.2361C31.8768 60.361 36.7722 61.2913 36.7722 61.2913L31.8438 52.9811Z" stroke="#694A59" stroke-width="1.95131"/>
<path d="M57.5842 26.7822L55.8166 36.6051L62.2684 43.2313C62.2684 43.2313 62.9365 38.5471 61.8366 34.4421C60.7366 30.3372 57.5842 26.7822 57.5842 26.7822Z" fill="#694A59"/>
<path d="M47.6067 38.805L55.8166 36.6051M55.8166 36.6051L57.5842 26.7822C57.5842 26.7822 60.7366 30.3372 61.8366 34.4421C62.9365 38.5471 62.2684 43.2313 62.2684 43.2313L55.8166 36.6051Z" stroke="#694A59" stroke-width="1.95131"/>
<path d="M23.3127 26.7822L25.0803 36.6051L18.7104 43.2313C18.7104 43.2313 17.9604 38.5471 19.0604 34.4421C20.1603 30.3372 23.3127 26.7822 23.3127 26.7822Z" fill="#694A59"/>
<path d="M33.2902 38.805L25.0803 36.6051M25.0803 36.6051L23.3127 26.7822C23.3127 26.7822 20.1603 30.3372 19.0604 34.4421C17.9604 38.5471 18.7104 43.2313 18.7104 43.2313L25.0803 36.6051Z" stroke="#694A59" stroke-width="1.95131"/>
</g>
<defs>
<linearGradient id="paint0_linear_2041_2103" x1="12.7848" y1="63.913" x2="44.9433" y2="96.0714" gradientUnits="userSpaceOnUse">
<stop stop-color="#633C50" stop-opacity="0.2"/>
<stop offset="1" stop-color="#CA9FB5"/>
</linearGradient>
<clipPath id="clip0_2041_2103">
<rect y="-0.00195312" width="80.0039" height="80.0039" rx="40.002" fill="white"/>
</clipPath>
</defs>
</svg>
